{"title":"Godzilla.2014.720p.BluRay.x264-SPARKS GREEK SUBS","uid":11022552,"size":5864711497,"categoryP":"video","categoryS":"hd___movies","magnet":"?xt=urn:btih:dc8cd758ccb22dd899a28b972132cd2135151c8e&amp;dn=Godzilla.2014.720p.BluRay.x264-SPARKS+GREEK+SUBS&amp;tr=udp%3A%2F%2Ftracker.openbittorrent.com%3A80&amp;tr=udp%3A%2F%2Fopen.demonii.com%3A1337&amp;tr=udp%3A%2F%2Ftracker.coppersurfer.tk%3A6969&amp;tr=udp%3A%2F%2Fexodus.desync.com%3A6969","seeders":9,"leechers":2,"uploader":"holyANT","files":-1,"time":1410618386,"description":"To pio diashmo teras ston kosmo vrisketai enantia sta kakovoula plasmata pou, enisxythhkan apo thn episthmonikh alazoneia ths anthrwpothtas, na apeiloyn thn idia thn yparksh mas.\n\n  &lt;a href=&quot;\nhttp://image.bayimg.com/47ef504253c03b6a0183f635c6bc14a0713334e6.jpg&quot; rel=&quot;nofollow&quot; target=&quot;_NEW&quot;&gt;\nhttp://image.bayimg.com/47ef504253c03b6a0183f635c6bc14a0713334e6.jpg&lt;/a&gt;\n \n\nParagwgh: 2014\n\nEidos: Drashs, Episthmonikhs Fantasias, THriler\n\nSkhnothesia: Gareth Edwards\n\nHthopoioi: Aaron Taylor-Johnson, Elizabeth Olsen, Bryan Cranston\n\n\nGeneral\nUnique ID : 227103291597808438648146394822424088815 (0xAADA80C3042C0C25889BDA25466B50EF)\nComplete name : ddd/Godzilla.2014.720p.BluRay.x264-SPARKS/Godzilla.2014.720p.BluRay.x264-SPARKS.mkv\nFormat : Matroska\nFormat version : Version 4 / Version 2\nFile size : 5.46 GiB\nDuration : 2h 3mn\nOverall bit rate : 6 351 Kbps\nEncoded date : UTC 2014-08-21 23:11:42\nWriting application : mkvmerge v6.2.0 ('Promised Land') built on Apr 28 2013 12:22:01\nWriting library : libebml v1.3.0 + libmatroska v1.4.0\n\nVideo\nID : 1\nFormat : AVC\nFormat/Info : Advanced Video Codec\nFormat profile : &lt;a class=&quot;__cf_email__&quot; href=&quot;/cdn-cgi/l/email-protection&quot; data-cfemail=&quot;90d8f9f7f8d0dca4bea1&quot;&gt;[email&amp;#160;protected]&lt;/a&gt;&lt;script cf-hash='f9e31' type=&quot;text/javascript&quot;&gt;\n/* &lt;![CDATA[ */!function(){try{var t=&quot;currentScript&quot;in document?document.currentScript:function(){for(var t=document.getElementsByTagName(&quot;script&quot;),e=t.length;e--;)if(t[e].getAttribute(&quot;cf-hash&quot;))return t[e]}();if(t&amp;&amp;t.previousSibling){var e,r,n,i,c=t.previousSibling,a=c.getAttribute(&quot;data-cfemail&quot;);if(a){for(e=&quot;&quot;,r=parseInt(a.substr(0,2),16),n=2;a.length-n;n+=2)i=parseInt(a.substr(n,2),16)^r,e+=String.fromCharCode(i);e=document.createTextNode(e),c.parentNode.replaceChild(e,c)}}}catch(u){}}();/* ]]&gt; */&lt;/script&gt;\nFormat settings, CABAC : Yes\nFormat settings, ReFrames : 5 frames\nCodec ID : V_MPEG4/ISO/AVC\nDuration : 2h 3mn\nBit rate : 4 840 Kbps\nWidth : 1 280 pixels\nHeight : 536 pixels\nDisplay aspect ratio : 2.40:1\nFrame rate : 23.976 fps\nColor space : YUV\nChroma subsampling : 4:2:0\nBit depth : 8 bits\nScan type : Progressive\nBits/(Pixel*Frame) : 0.294\nStream size : 4.05 GiB (74%)\nWriting library : x264 core 142 r2431 ac76440\nEncoding settings : cabac=1 / ref=5 / deblock=1:0:0 / analyse=0x3:0x133 / me=umh / subme=7 / psy=1 / psy_rd=1.00:0.00 / mixed_ref=1 / me_range=16 / chroma_me=1 / trellis=1 / 8x8dct=1 / cqm=0 / deadzone=21,11 / fast_pskip=0 / chroma_qp_offset=-2 / threads=18 / lookahead_threads=3 / sliced_threads=0 / nr=0 / decimate=1 / interlaced=0 / bluray_compat=0 / constrained_intra=0 / bframes=3 / b_pyramid=2 / b_adapt=1 / b_bias=0 / direct=1 / weightb=1 / open_gop=0 / weightp=2 / keyint=250 / keyint_min=23 / scenecut=40 / intra_refresh=0 / rc_lookahead=40 / rc=2pass / mbtree=1 / bitrate=4840 / ratetol=1.0 / qcomp=0.60 / qpmin=0 / qpmax=69 / qpstep=4 / cplxblur=20.0 / qblur=0.5 / ip_ratio=1.40 / aq=1:1.00\nLanguage : English\nDefault : Yes\nForced : No\n\nAudio\nID : 2\nFormat : DTS\nFormat/Info : Digital Theater Systems\nCodec ID : A_DTS\nDuration : 2h 3mn\nBit rate mode : Constant\nBit rate : 1 510 Kbps\nChannel(s) : 6 channels\nChannel positions : Front: L C R, Side: L R, LFE\nSampling rate : 48.0 KHz\nBit depth : 24 bits\nCompression mode : Lossy\nStream size : 1.30 GiB (24%)\nLanguage : English\nDefault : Yes\nForced : No\n\nMenu\n00:00:00.000 : en:00:00:00.000\n00:09:22.562 : en:00:09:22.562\n00:19:03.225 : en:00:19:03.225\n00:30:25.532 : en:00:30:25.532\n00:39:10.098 : en:00:39:10.098\n00:49:43.439 : en:00:49:43.439\n00:59:27.189 : en:00:59:27.189\n01:09:50.186 : en:01:09:50.186\n01:19:11.246 : en:01:19:11.246\n01:29:57.267 : en:01:29:57.267\n01:40:14.759 : en:01:40:14.759\n01:52:14.728 : en:01:52:14.728\n01:56:10.088 : en:01:56:10.088\n","torrent":{"xt":"urn:btih:dc8cd758ccb22dd899a28b972132cd2135151c8e","amp;dn":"Godzilla.2014.720p.BluRay.x264-SPARKS+GREEK+SUBS","amp;tr":["udp%3A%2F%2Ftracker.openbittorrent.com%3A80","udp%3A%2F%2Fopen.demonii.com%3A1337","udp%3A%2F%2Ftracker.coppersurfer.tk%3A6969","udp%3A%2F%2Fexodus.desync.com%3A6969"],"infoHash":"dc8cd758ccb22dd899a28b972132cd2135151c8e","infoHashBuffer":{"type":"Buffer","data":[220,140,215,88,204,178,45,216,153,162,139,151,33,50,205,33,53,21,28,142]},"announce":[],"urlList":[]}}